<svg class="school-badge-art" xmlns="http://www.w3.org/2000/svg" viewBox="0 0 48 48" shape-rendering="crispEdges" aria-hidden="true"><path d="M10 2h28v4h6v6h2v24h-2v6h-6v4H10v-4H4v-6H2V12h2V6h6z" fill="#9a7651"/><path d="M10 9h28v3h3v24h-3v3H10v-3H7V12h3z" fill="#d7b778"/><path d="M8 17v-3h6v-3h6V8h8v3h6v3h6v3z" fill="#fff1c9"/><rect x="10" y="19" width="4" height="14" fill="#fff1c9"/><rect x="20" y="19" width="4" height="14" fill="#fff1c9"/><rect x="30" y="19" width="4" height="14" fill="#fff1c9"/><rect x="8" y="34" width="30" height="4" fill="#fff1c9"/><path d="M26 31v-4h3v-4h3v-4h4v-4h6v9h-3v5h-6v4h-5v3h-3z" fill="#536f61"/><path d="M27 35l12-16" fill="none" stroke="#a8c299" stroke-width="2"/></svg>
