<svg class="school-badge-art" xmlns="http://www.w3.org/2000/svg" viewBox="0 0 48 48" shape-rendering="crispEdges" aria-hidden="true"><path d="M10 2h28v4h6v6h2v24h-2v6h-6v4H10v-4H4v-6H2V12h2V6h6z" fill="#698456"/><path d="M10 9h28v3h3v24h-3v3H10v-3H7V12h3z" fill="#a9be7e"/><rect x="21" y="8" width="6" height="6" fill="#e4ae63"/><rect x="23" y="13" width="2" height="8" fill="#55794f"/><path d="M22 18h-7v-5h7v5h4v-7h7v5h-7v7h-4z" fill="#55794f"/><path d="M7 24h12v2h10v-2h12v14H29v3H19v-3H7z" fill="#476e55"/><path d="M10 23h10v2h3v12h-3v-2H10zM25 25h3v-2h10v12H28v2h-3z" fill="#fff3cf"/><rect x="12" y="27" width="6" height="2" fill="#b5ba84"/><rect x="12" y="31" width="6" height="2" fill="#b5ba84"/><rect x="30" y="27" width="6" height="2" fill="#b5ba84"/><rect x="30" y="31" width="6" height="2" fill="#b5ba84"/></svg>
